<svg xmlns="http://www.w3.org/2000/svg" xmlns:xlink="http://www.w3.org/1999/xlink" version="1.1" width="256" height="256" viewBox="0 0 256 256" xml:space="preserve">

<defs>
</defs>
<g style="stroke: none; stroke-width: 0; stroke-dasharray: none; stroke-linecap: butt; stroke-linejoin: miter; stroke-miterlimit: 10; fill: none; fill-rule: nonzero; opacity: 1;" transform="translate(1.4065934065934016 1.4065934065934016) scale(2.81 2.81)" >
	<path d="M 65.953 8.01 C 59.21 1.971 50.497 -0.801 41.425 0.2 C 26.478 1.852 14.806 13.958 13.672 28.985 c -0.683 9.051 2.548 17.945 8.864 24.403 c 2.798 2.86 4.403 6.951 4.403 11.223 v 20.648 c 0 2.614 2.127 4.741 4.741 4.741 h 26.637 c 2.614 0 4.74 -2.127 4.74 -4.741 v -20.97 c 0 -4.09 1.572 -8.03 4.313 -10.81 c 5.834 -5.915 9.047 -13.748 9.047 -22.057 C 76.418 22.5 72.604 13.967 65.953 8.01 z M 61.058 65.611 v 6.181 h -5.061 c -0.553 0 -1 0.447 -1 1 s 0.447 1 1 1 h 5.061 v 6.18 H 28.939 v -6.18 h 19.613 c 0.553 0 1 -0.447 1 -1 s -0.447 -1 -1 -1 H 28.939 v -6.181 H 61.058 z M 58.318 88 H 31.68 c -1.512 0 -2.741 -1.229 -2.741 -2.741 v -3.286 h 32.119 v 3.286 C 61.058 86.771 59.828 88 58.318 88 z M 65.947 52.074 c -2.954 2.996 -4.691 7.17 -4.857 11.537 H 28.894 c -0.226 -4.471 -1.943 -8.571 -4.928 -11.622 c -5.914 -6.047 -8.939 -14.377 -8.3 -22.854 C 16.728 15.067 27.653 3.734 41.644 2.189 C 42.784 2.063 43.917 2 45.041 2 c 7.26 0 14.111 2.603 19.578 7.5 c 6.228 5.577 9.8 13.567 9.8 21.922 C 74.418 39.202 71.409 46.536 65.947 52.074 z" style="stroke: none; stroke-width: 1; stroke-dasharray: none; stroke-linecap: butt; stroke-linejoin: miter; stroke-miterlimit: 10; fill: rgb(0,0,0); fill-rule: nonzero; opacity: 1;" transform=" matrix(1 0 0 1 0 0) " stroke-linecap="round" />
	<path d="M 62.53 29.005 c -0.553 0 -1 -0.448 -1 -1 c 0 -4.694 -2.007 -9.184 -5.507 -12.318 c -3.547 -3.177 -8.129 -4.635 -12.911 -4.108 c -0.537 0.062 -1.043 -0.335 -1.104 -0.884 c -0.061 -0.549 0.335 -1.043 0.884 -1.104 C 48.245 9 53.381 10.636 57.357 14.197 c 3.923 3.513 6.173 8.546 6.173 13.808 C 63.53 28.557 63.082 29.005 62.53 29.005 z" style="stroke: none; stroke-width: 1; stroke-dasharray: none; stroke-linecap: butt; stroke-linejoin: miter; stroke-miterlimit: 10; fill: rgb(0,0,0); fill-rule: nonzero; opacity: 1;" transform=" matrix(1 0 0 1 0 0) " stroke-linecap="round" />
</g>
</svg>