<svg xmlns="http://www.w3.org/2000/svg" xmlns:xlink="http://www.w3.org/1999/xlink" version="1.1" width="256" height="256" viewBox="0 0 256 256" xml:space="preserve">

<defs>
</defs>
<g style="stroke: none; stroke-width: 0; stroke-dasharray: none; stroke-linecap: butt; stroke-linejoin: miter; stroke-miterlimit: 10; fill: none; fill-rule: nonzero; opacity: 1;" transform="translate(1.4065934065934016 1.4065934065934016) scale(2.81 2.81)" >
	<path d="M 14.971 86.134 c -0.193 0 -0.388 -0.038 -0.574 -0.116 c -0.551 -0.231 -0.909 -0.77 -0.909 -1.368 V 67.853 H 5.177 C 2.322 67.853 0 65.531 0 62.676 V 9.043 c 0 -2.855 2.322 -5.177 5.177 -5.177 h 79.646 C 87.678 3.866 90 6.189 90 9.043 v 53.633 c 0 2.855 -2.322 5.177 -5.177 5.177 H 34.205 L 16.011 85.709 C 15.728 85.987 15.353 86.134 14.971 86.134 z M 5.177 6.833 c -1.218 0 -2.21 0.991 -2.21 2.21 v 53.633 c 0 1.219 0.991 2.21 2.21 2.21 h 9.795 c 0.82 0 1.484 0.664 1.484 1.484 v 14.746 L 32.56 65.31 c 0.278 -0.272 0.65 -0.425 1.039 -0.425 h 51.224 c 1.219 0 2.21 -0.991 2.21 -2.21 V 9.043 c 0 -1.218 -0.991 -2.21 -2.21 -2.21 H 5.177 z" style="stroke: none; stroke-width: 1; stroke-dasharray: none; stroke-linecap: butt; stroke-linejoin: miter; stroke-miterlimit: 10; fill: rgb(0,0,0); fill-rule: nonzero; opacity: 1;" transform=" matrix(1 0 0 1 0 0) " stroke-linecap="round" />
	<path d="M 45 42.937 c -3.504 0 -6.355 -2.851 -6.355 -6.354 V 18.544 c 0 -2.128 1.732 -3.86 3.86 -3.86 h 4.989 c 2.128 0 3.859 1.732 3.859 3.86 v 18.038 C 51.354 40.086 48.504 42.937 45 42.937 z M 42.505 17.652 c -0.493 0 -0.893 0.4 -0.893 0.893 v 18.038 c 0 1.868 1.52 3.387 3.388 3.387 s 3.387 -1.519 3.387 -3.387 V 18.544 c 0 -0.493 -0.401 -0.893 -0.892 -0.893 H 42.505 z" style="stroke: none; stroke-width: 1; stroke-dasharray: none; stroke-linecap: butt; stroke-linejoin: miter; stroke-miterlimit: 10; fill: rgb(0,0,0); fill-rule: nonzero; opacity: 1;" transform=" matrix(1 0 0 1 0 0) " stroke-linecap="round" />
	<path d="M 45 57.998 c -3.504 0 -6.355 -2.851 -6.355 -6.355 s 2.851 -6.354 6.355 -6.354 s 6.354 2.85 6.354 6.354 S 48.504 57.998 45 57.998 z M 45 48.256 c -1.868 0 -3.388 1.519 -3.388 3.387 s 1.52 3.388 3.388 3.388 s 3.387 -1.52 3.387 -3.388 S 46.868 48.256 45 48.256 z" style="stroke: none; stroke-width: 1; stroke-dasharray: none; stroke-linecap: butt; stroke-linejoin: miter; stroke-miterlimit: 10; fill: rgb(0,0,0); fill-rule: nonzero; opacity: 1;" transform=" matrix(1 0 0 1 0 0) " stroke-linecap="round" />
</g>
</svg>