<svg class="svg-icon" style="width: 1em;height: 1em;vertical-align: middle;fill: currentColor;overflow: hidden;" viewBox="0 0 1024 1024" version="1.1" xmlns="http://www.w3.org/2000/svg"><path d="M853.333333 246.314667a123.690667 123.690667 0 0 1-91.818666 119.466666L597.333333 409.6V725.333333a170.666667 170.666667 0 1 1-64-133.248V269.013333a128 128 0 0 1 95.018667-123.690666l69.418667-18.517334A123.690667 123.690667 0 0 1 853.333333 246.314667zM426.666667 618.666667a106.666667 106.666667 0 1 0 0 213.333333 106.666667 106.666667 0 0 0 0-213.333333z m362.666666-372.352c0-37.333333-33.706667-65.024-69.632-58.88l-5.418666 1.237333-69.418667 18.474667a64 64 0 0 0-47.274667 56.106666L597.333333 269.013333v74.368l147.712-39.424A59.690667 59.690667 0 0 0 789.333333 246.314667z" fill="#000000" /></svg>