<svg xmlns="http://www.w3.org/2000/svg" xmlns:xlink="http://www.w3.org/1999/xlink" version="1.1" width="256" height="256" viewBox="0 0 256 256" xml:space="preserve">

<defs>
</defs>
<g style="stroke: none; stroke-width: 0; stroke-dasharray: none; stroke-linecap: butt; stroke-linejoin: miter; stroke-miterlimit: 10; fill: none; fill-rule: nonzero; opacity: 1;" transform="translate(1.4065934065934016 1.4065934065934016) scale(2.81 2.81)" >
	<path d="M 51.293 59.896 c 1.853 -1.703 3.022 -4.138 3.022 -6.853 v -6.065 c 0 -5.145 -4.171 -9.315 -9.315 -9.315 s -9.315 4.171 -9.315 9.315 v 6.065 c 0 2.715 1.169 5.151 3.022 6.853 c -5.21 2.709 -8.836 8.658 -8.836 15.58 v 8.593 c 0 1.87 1.516 3.386 3.385 3.386 h 23.488 c 1.87 0 3.385 -1.516 3.385 -3.386 v -8.593 C 60.13 68.554 56.504 62.605 51.293 59.896 z" style="stroke: none; stroke-width: 1; stroke-dasharray: none; stroke-linecap: butt; stroke-linejoin: miter; stroke-miterlimit: 10; fill: rgb(0,0,0); fill-rule: nonzero; opacity: 1;" transform=" matrix(1 0 0 1 0 0) " stroke-linecap="round" />
	<path d="M 70.36 83.916 c -1.007 0 -2.003 -0.451 -2.664 -1.31 c -1.131 -1.471 -0.855 -3.579 0.614 -4.709 c 9.517 -7.32 14.974 -18.381 14.974 -30.35 C 83.284 26.437 66.109 9.262 45 9.262 S 6.716 26.437 6.716 47.546 c 0 11.968 5.458 23.03 14.974 30.35 c 1.47 1.131 1.745 3.239 0.614 4.709 c -1.129 1.469 -3.236 1.746 -4.709 0.614 C 6.413 74.619 0 61.616 0 47.546 c 0 -24.813 20.187 -45 45 -45 c 24.813 0 45 20.187 45 45 c 0 14.07 -6.413 27.073 -17.595 35.673 C 71.795 83.689 71.075 83.916 70.36 83.916 z" style="stroke: none; stroke-width: 1; stroke-dasharray: none; stroke-linecap: butt; stroke-linejoin: miter; stroke-miterlimit: 10; fill: rgb(0,0,0); fill-rule: nonzero; opacity: 1;" transform=" matrix(1 0 0 1 0 0) " stroke-linecap="round" />
	<path d="M 23.952 63.742 c -1.102 0 -2.181 -0.54 -2.824 -1.535 c -2.984 -4.615 -4.56 -9.937 -4.56 -15.389 c 0 -15.678 12.755 -28.433 28.433 -28.433 c 15.679 0 28.433 12.755 28.433 28.433 c 0 5.453 -1.577 10.774 -4.561 15.389 c -1.009 1.56 -3.085 2.003 -4.644 0.997 c -1.557 -1.007 -2.003 -3.087 -0.997 -4.644 c 2.28 -3.526 3.485 -7.586 3.485 -11.742 c 0 -11.974 -9.743 -21.716 -21.717 -21.716 s -21.716 9.742 -21.716 21.716 c 0 4.156 1.205 8.216 3.485 11.742 c 1.007 1.557 0.56 3.636 -0.997 4.644 C 25.208 63.568 24.576 63.742 23.952 63.742 z" style="stroke: none; stroke-width: 1; stroke-dasharray: none; stroke-linecap: butt; stroke-linejoin: miter; stroke-miterlimit: 10; fill: rgb(0,0,0); fill-rule: nonzero; opacity: 1;" transform=" matrix(1 0 0 1 0 0) " stroke-linecap="round" />
</g>
</svg>