<svg xmlns="http://www.w3.org/2000/svg" xmlns:xlink="http://www.w3.org/1999/xlink" version="1.1" width="256" height="256" viewBox="0 0 256 256" xml:space="preserve">

<defs>
</defs>
<g style="stroke: none; stroke-width: 0; stroke-dasharray: none; stroke-linecap: butt; stroke-linejoin: miter; stroke-miterlimit: 10; fill: none; fill-rule: nonzero; opacity: 1;" transform="translate(1.4065934065934016 1.4065934065934016) scale(2.81 2.81)" >
	<path d="M 87.161 23.819 c -1.012 -3.786 -3.994 -6.768 -7.78 -7.78 C 72.519 14.2 45 14.2 45 14.2 s -27.519 0 -34.381 1.839 c -3.786 1.012 -6.768 3.994 -7.78 7.78 C 1 30.681 1 45 1 45 s 0 14.319 1.839 21.181 c 1.012 3.786 3.994 6.768 7.78 7.78 C 17.481 75.8 45 75.8 45 75.8 s 27.519 0 34.381 -1.839 c 3.786 -1.012 6.768 -3.994 7.78 -7.78 C 89 59.319 89 45 89 45 S 89 30.681 87.161 23.819 z" style="stroke: none; stroke-width: 1; stroke-dasharray: none; stroke-linecap: butt; stroke-linejoin: miter; stroke-miterlimit: 10; fill: rgb(255,102,102); fill-rule: nonzero; opacity: 1;" transform=" matrix(1 0 0 1 0 0) " stroke-linecap="round" />
	<path d="M 87.161 23.819 c -1.012 -3.786 -3.994 -6.768 -7.78 -7.78 c -0.495 -0.133 -1.108 -0.255 -1.801 -0.369 C 78.999 22.96 79 35 79 35 s 0 14.319 -1.839 21.181 c -1.012 3.786 -3.994 6.768 -7.78 7.78 C 62.519 65.8 35 65.8 35 65.8 s -23.68 -0.001 -32.58 -1.47 c 0.128 0.659 0.267 1.282 0.419 1.851 c 1.012 3.786 3.994 6.768 7.78 7.78 C 17.481 75.8 45 75.8 45 75.8 s 27.519 0 34.381 -1.839 c 3.786 -1.012 6.768 -3.994 7.78 -7.78 C 89 59.319 89 45 89 45 S 89 30.681 87.161 23.819 z" style="stroke: none; stroke-width: 1; stroke-dasharray: none; stroke-linecap: butt; stroke-linejoin: miter; stroke-miterlimit: 10; fill: rgb(225,79,79); fill-rule: nonzero; opacity: 1;" transform=" matrix(1 0 0 1 0 0) " stroke-linecap="round" />
	<polygon points="36.2,58.2 59.06,45 36.2,31.8 " style="stroke: none; stroke-width: 1; stroke-dasharray: none; stroke-linecap: butt; stroke-linejoin: miter; stroke-miterlimit: 10; fill: rgb(255,255,255); fill-rule: nonzero; opacity: 1;" transform="  matrix(1 0 0 1 0 0) "/>
	<polygon points="52.73,41.34 36.2,50.89 36.2,58.2 59.06,45 " style="stroke: none; stroke-width: 1; stroke-dasharray: none; stroke-linecap: butt; stroke-linejoin: miter; stroke-miterlimit: 10; fill: rgb(240,240,240); fill-rule: nonzero; opacity: 1;" transform="  matrix(1 0 0 1 0 0) "/>
	<path d="M 36.2 59.2 c -0.173 0 -0.345 -0.045 -0.5 -0.134 c -0.31 -0.179 -0.5 -0.509 -0.5 -0.866 V 31.8 c 0 -0.357 0.19 -0.688 0.5 -0.866 s 0.69 -0.179 1 0 l 22.86 13.2 c 0.31 0.179 0.5 0.509 0.5 0.866 s -0.19 0.688 -0.5 0.866 l -22.86 13.2 C 36.545 59.155 36.373 59.2 36.2 59.2 z M 37.2 33.532 v 22.936 L 57.061 45 L 37.2 33.532 z" style="stroke: none; stroke-width: 1; stroke-dasharray: none; stroke-linecap: butt; stroke-linejoin: miter; stroke-miterlimit: 10; fill: rgb(0,0,0); fill-rule: nonzero; opacity: 1;" transform=" matrix(1 0 0 1 0 0) " stroke-linecap="round" />
	<path d="M 38.402 76.743 c -0.005 0 -0.01 0 -0.015 0 c -10.243 -0.146 -23.419 -0.581 -28.027 -1.816 c -4.131 -1.104 -7.383 -4.356 -8.487 -8.488 C 0.021 59.529 0 45.59 0 45 c 0 -0.552 0.448 -1 1 -1 s 1 0.448 1 1 c 0 0.142 0.021 14.267 1.805 20.922 c 0.92 3.443 3.63 6.153 7.072 7.073 c 4.643 1.244 19.247 1.629 27.539 1.748 c 0.552 0.008 0.994 0.462 0.986 1.015 C 39.394 76.305 38.948 76.743 38.402 76.743 z" style="stroke: none; stroke-width: 1; stroke-dasharray: none; stroke-linecap: butt; stroke-linejoin: miter; stroke-miterlimit: 10; fill: rgb(0,0,0); fill-rule: nonzero; opacity: 1;" transform=" matrix(1 0 0 1 0 0) " stroke-linecap="round" />
	<path d="M 46.598 76.8 h -3.196 c -0.552 0 -1 -0.447 -1 -1 s 0.448 -1 1 -1 h 3.196 c 0.553 0 1 0.447 1 1 S 47.15 76.8 46.598 76.8 z" style="stroke: none; stroke-width: 1; stroke-dasharray: none; stroke-linecap: butt; stroke-linejoin: miter; stroke-miterlimit: 10; fill: rgb(0,0,0); fill-rule: nonzero; opacity: 1;" transform=" matrix(1 0 0 1 0 0) " stroke-linecap="round" />
	<path d="M 1 46.057 c -0.552 0 -1 -0.448 -1 -1 c 0 -0.59 0.021 -14.53 1.874 -21.439 c 1.104 -4.131 4.356 -7.383 8.487 -8.488 c 4.605 -1.234 17.783 -1.669 28.027 -1.816 c 0.56 -0.009 1.006 0.434 1.014 0.986 s -0.434 1.006 -0.986 1.014 c -8.293 0.119 -22.898 0.505 -27.538 1.749 c -3.443 0.92 -6.153 3.63 -7.072 7.073 C 2.021 30.792 2 44.915 2 45.057 C 2 45.609 1.552 46.057 1 46.057 z" style="stroke: none; stroke-width: 1; stroke-dasharray: none; stroke-linecap: butt; stroke-linejoin: miter; stroke-miterlimit: 10; fill: rgb(0,0,0); fill-rule: nonzero; opacity: 1;" transform=" matrix(1 0 0 1 0 0) " stroke-linecap="round" />
	<path d="M 51.598 76.743 c -0.546 0 -0.992 -0.438 -1 -0.985 c -0.008 -0.553 0.434 -1.007 0.985 -1.015 c 8.293 -0.119 22.896 -0.504 27.539 -1.748 c 3.442 -0.92 6.152 -3.63 7.073 -7.073 C 87.94 59.407 87.998 45.749 88 45.028 c -0.002 -0.715 -0.06 -14.381 -1.805 -20.894 c -0.921 -3.443 -3.631 -6.153 -7.072 -7.073 c -4.641 -1.244 -19.246 -1.63 -27.54 -1.749 c -0.552 -0.008 -0.993 -0.462 -0.985 -1.014 c 0.008 -0.553 0.454 -0.976 1.015 -0.986 c 10.243 0.147 23.422 0.582 28.027 1.817 c 4.13 1.104 7.383 4.356 8.487 8.488 c 1.806 6.737 1.871 20.161 1.873 21.371 c 0 0.004 0 0.008 0 0.012 c 0 0.007 0 0.017 0 0.028 s 0 0.021 0 0.028 c 0 0.004 0 0.008 0 0.012 c -0.002 1.21 -0.067 14.633 -1.873 21.371 c -1.104 4.132 -4.357 7.384 -8.488 8.487 c -4.607 1.235 -17.784 1.67 -28.026 1.816 C 51.607 76.743 51.603 76.743 51.598 76.743 z" style="stroke: none; stroke-width: 1; stroke-dasharray: none; stroke-linecap: butt; stroke-linejoin: miter; stroke-miterlimit: 10; fill: rgb(0,0,0); fill-rule: nonzero; opacity: 1;" transform=" matrix(1 0 0 1 0 0) " stroke-linecap="round" />
	<path d="M 46.598 15.256 h -3.196 c -0.552 0 -1 -0.448 -1 -1 s 0.448 -1 1 -1 h 3.196 c 0.553 0 1 0.448 1 1 S 47.15 15.256 46.598 15.256 z" style="stroke: none; stroke-width: 1; stroke-dasharray: none; stroke-linecap: butt; stroke-linejoin: miter; stroke-miterlimit: 10; fill: rgb(0,0,0); fill-rule: nonzero; opacity: 1;" transform=" matrix(1 0 0 1 0 0) " stroke-linecap="round" />
</g>
</svg>